<svg xmlns="http://www.w3.org/2000/svg" viewBox="0 0 973.5 973.5"><path d="M486.75 0C217.93 0 0 217.93 0 486.75S217.93 973.5 486.75 973.5 973.5 755.57 973.5 486.75 755.57 0 486.75 0Zm-66.13 739c-45.76 27.87-79.76 48.5-87.41 53-21.1 12.39-48.79-1.3-48.79-29.49V211.92c0-25.6 25.05-44.64 49.81-29.66 5.44 3.28 39.62 24.12 86.39 52.65Zm190.19-116.1c-45.16 27.6-92.89 56.73-136.21 83.15V267.84L610.81 351Zm173.65-106.3c-8 5-57 35-119.68 73.31v-206C725.6 421 773.63 450.35 784.46 457c22.22 13.56 21.85 46 0 59.6Z" style="fill:#76bd43" data-name="Layer 2"/></svg>